<svg version="1.1" xmlns="http://www.w3.org/2000/svg" xmlns:xlink="http://www.w3.org/1999/xlink" x="0px" y="0px" viewBox="0 0 25.1 43.5" xml:space="preserve">
<path d="M22.5,1.8l-5.2,0c-5.8,0-9.6,3.9-9.6,9.8v4.5c0,0,0,0,0,0H2.6c-0.5,0-0.8,0.4-0.8,0.8v6.5
	c0,0.5,0.4,0.8,0.8,0.8h5.2c0,0,0,0,0,0v16.5c0,0.5,0.4,0.8,0.8,0.8h6.8c0.5,0,0.8-0.4,0.8-0.8V24.4c0,0,0,0,0,0h6.1
	c0.5,0,0.8-0.4,0.8-0.8l0-6.6c0-0.2-0.1-0.4-0.2-0.6s-0.4-0.2-0.6-0.2h-6.1c0,0,0,0,0,0v-3.8c0-1.8,0.4-2.8,2.9-2.8l3.5,0
	c0.5,0,0.8-0.4,0.8-0.8V2.6C23.4,2.1,23,1.8,22.5,1.8z" style="stroke-dashoffset: 128.833; stroke-dasharray: 128.833, 128.833;"></path>
</svg>