<svg version="1.1" xmlns="http://www.w3.org/2000/svg" xmlns:xlink="http://www.w3.org/1999/xlink" x="0px" y="0px" viewBox="0 0 43.5 43.5" xml:space="preserve">
<path d="M33.8,41.8h-24c-4.4,0-8-3.6-8-8v-24c0-4.4,3.6-8,8-8h24c4.4,0,8,3.6,8,8v24C41.8,38.2,38.2,41.8,33.8,41.8z" style="stroke-dashoffset: 146.241; stroke-dasharray: 146.241, 146.241;"></path>
<path d="M30.4,21.8c0,4.8-3.9,8.6-8.6,8.6s-8.6-3.9-8.6-8.6s3.9-8.6,8.6-8.6S30.4,17,30.4,21.8z" style="stroke-dashoffset: 54.0004; stroke-dasharray: 54.0004, 54.0004;"></path>
<path d="M35.4,9.6C35,10,34.3,9.9,33.9,9.5S33.5,8.4,34,8s1.1-0.4,1.5,0.1S35.9,9.2,35.4,9.6z" style="stroke-dashoffset: 6.74594; stroke-dasharray: 6.74594, 6.74594;"></path>
</svg>