<svg version="1.1" xmlns="http://www.w3.org/2000/svg" xmlns:xlink="http://www.w3.org/1999/xlink" x="0px" y="0px" viewBox="0 0 43.5 35.3" xml:space="preserve">
<path d="M37.4,20.8" style="stroke-dashoffset: 0; stroke-dasharray: 0, 0;"></path>
<path d="M36.7,18c-0.3,1.3-0.9,2.6-1.6,3.8c-3.7,6.4-10.4,10.8-17.8,11.6c-8.8,1-15.5-3-15.5-3
	c5.4,1.6,12.4-3.9,12.4-3.9c-6.2,0.8-7.8-5.4-7.8-5.4c1.6,0,3.1-0.8,3.1-0.8c-6.2-1.6-6.2-7.8-6.2-7.8c1.6,0.8,3.9,0.8,3.9,0.8
	C1,8.7,4.9,2.5,4.9,2.5s3.9,5.4,8.5,7s7.8,1.6,8.5,1.6h0.9c-0.2-0.7-0.2-1.5-0.1-2.3c0.3-3.6,3.2-6.5,6.8-6.9
	c4.7-0.5,8.6,3.1,8.6,7.7C38.2,9.5,38.1,14.4,36.7,18z" style="stroke-dashoffset: 151.354; stroke-dasharray: 151.354, 151.354;"></path>
<path d="M39,6.5c0,0,1.3,0.1,2.8-0.6C41,6.8,39.9,8,39,8.4" style="stroke-dashoffset: 6.66592; stroke-dasharray: 6.66592, 6.66592;"></path>
<path d="M36.8,3.5c0,0,3-0.8,3.8-1.2c-0.5,0.9-1.6,2.1-2.2,2.4" style="stroke-dashoffset: 7.27429; stroke-dasharray: 7.27429, 7.27429;"></path>
</svg>